<?xml version="1.0" standalone="no"?>
<!DOCTYPE svg PUBLIC "-//W3C//DTD SVG 20010904//EN"
 "http://www.w3.org/TR/2001/REC-SVG-20010904/DTD/svg10.dtd">
<svg version="1.0" xmlns="http://www.w3.org/2000/svg"
 width="161.000000pt" height="164.000000pt" viewBox="0 0 161.000000 164.000000"
 preserveAspectRatio="xMidYMid meet">

<g transform="translate(0.000000,164.000000) scale(0.100000,-0.100000)"
fill="#000000" stroke="none">
<path d="M0 820 l0 -820 803 2 802 3 0 815 0 815 -802 3 -803 2 0 -820z m1030
256 l0 -254 -119 -65 -119 -66 -116 62 -116 62 0 258 0 257 235 0 235 0 0
-254z m118 85 l-3 -47 43 24 42 24 0 -91 c0 -88 -1 -92 -25 -103 -23 -10 -25
-17 -25 -74 l0 -63 -75 -42 c-73 -40 -75 -42 -75 -78 0 -35 -4 -40 -49 -64
-62 -34 -71 -34 -71 3 0 17 -2 30 -5 30 -3 0 -30 -14 -60 -31 l-55 -31 -54 31
c-29 17 -56 31 -60 31 -3 0 -6 -13 -6 -30 0 -36 -12 -37 -65 -7 -35 20 -40 28
-43 62 -3 39 -6 41 -77 80 l-75 40 0 62 c0 59 -2 63 -30 78 -30 15 -30 16 -30
105 l0 90 40 -20 c21 -11 42 -20 45 -20 12 0 3 30 -12 40 -17 11 -17 11 0 6
14 -4 17 1 17 34 0 22 2 40 5 40 17 0 75 -36 75 -47 0 -11 -6 -10 -30 2 l-30
16 0 -36 c0 -21 5 -35 13 -36 10 0 10 -2 0 -6 -7 -2 -13 -16 -13 -29 0 -29 -6
-30 -45 -4 -16 11 -33 20 -37 20 -5 0 -8 -29 -8 -65 0 -36 2 -65 4 -65 2 0 11
-3 20 -6 13 -5 16 2 16 35 0 23 3 41 6 41 19 0 104 -55 104 -67 0 -11 -11 -8
-45 10 l-45 26 0 -36 c0 -22 7 -41 18 -50 16 -14 16 -14 -1 -9 -15 5 -17 -2
-17 -44 l0 -48 82 -46 c101 -55 122 -70 91 -61 -20 6 -23 3 -23 -23 0 -21 7
-32 28 -43 15 -7 30 -15 34 -17 4 -2 8 13 10 32 l3 36 68 -36 69 -36 69 37 69
36 0 -35 c0 -41 2 -42 41 -19 21 13 29 25 29 46 0 25 -3 28 -22 22 -28 -8 4
13 105 69 l67 38 0 49 c0 41 -2 48 -17 43 -17 -5 -17 -5 0 9 15 13 25 77 12
77 -3 0 -24 -9 -45 -20 -66 -34 -48 1 20 38 l60 33 0 -45 c0 -36 3 -44 15 -40
11 5 15 22 15 70 l0 64 -40 -20 c-49 -25 -50 -25 -50 5 0 14 -6 25 -12 26 -10
0 -10 2 0 6 6 2 12 20 12 39 0 34 -1 35 -22 20 -27 -19 -38 -20 -38 -3 0 7 19
22 43 34 42 20 42 20 45 0 2 -11 2 -41 0 -66z m-638 -646 c0 -10 -11 -15 -35
-15 -19 0 -35 -4 -35 -10 0 -5 14 -10 30 -10 20 0 30 -5 30 -15 0 -10 -10 -15
-30 -15 -19 0 -30 -5 -30 -14 0 -11 9 -13 35 -9 28 4 35 2 35 -11 0 -13 -11
-16 -55 -16 l-55 0 0 65 0 65 55 0 c42 0 55 -3 55 -15z m135 -35 l0 -45 -42
-3 c-29 -2 -43 -8 -43 -18 0 -8 -7 -14 -15 -14 -12 0 -15 14 -15 65 l0 66 58
-3 57 -3 0 -45z m55 -15 c0 -51 -3 -65 -15 -65 -12 0 -15 14 -15 65 0 51 3 65
15 65 12 0 15 -14 15 -65z m144 48 c4 -9 1 -21 -5 -27 -8 -8 -13 -8 -16 2 -3
6 -18 12 -34 12 -26 0 -29 -3 -29 -35 0 -32 3 -35 29 -35 16 0 31 4 33 10 2 5
9 6 17 1 8 -5 11 -16 8 -25 -5 -12 -20 -16 -62 -16 l-55 0 0 58 c0 32 3 62 7
65 3 4 28 7 54 7 34 0 49 -4 53 -17z m56 -14 l0 -32 28 33 c17 19 36 31 47 29
16 -4 15 -8 -10 -37 l-28 -33 29 -30 c25 -26 26 -29 8 -29 -10 0 -31 14 -46
32 l-27 33 -1 -32 c0 -23 -5 -33 -15 -33 -12 0 -15 14 -15 65 0 51 3 65 15 65
10 0 15 -10 15 -31z m140 -34 c0 -51 -3 -65 -15 -65 -12 0 -15 14 -15 65 0 51
3 65 15 65 12 0 15 -14 15 -65z m140 50 c0 -11 -11 -15 -40 -15 -22 0 -40 -4
-40 -10 0 -5 14 -10 30 -10 20 0 30 -5 30 -15 0 -10 -10 -15 -30 -15 -21 0
-30 -5 -30 -16 0 -14 7 -16 40 -11 30 4 40 2 40 -9 0 -10 -14 -14 -55 -14
l-55 0 0 65 0 65 55 0 c42 0 55 -3 55 -15z m-430 -155 c0 -6 -11 -8 -25 -4
-21 5 -25 3 -25 -15 0 -15 6 -21 23 -21 18 0 19 2 7 10 -13 8 -12 10 3 10 12
0 17 -6 15 -17 -2 -12 -12 -18 -28 -18 -21 0 -26 5 -28 33 -3 30 -1 32 27 32
17 0 31 -5 31 -10z m68 -25 c-1 -30 -3 -33 -16 -22 -12 9 -16 9 -19 0 -9 -26
-23 -12 -23 22 0 32 2 35 30 35 27 0 29 -3 28 -35z m37 25 c5 -8 11 -7 21 1 9
7 14 8 14 1 0 -6 -4 -14 -10 -17 -5 -3 -10 -15 -10 -26 0 -31 -14 -22 -26 16
-10 33 -3 48 11 25z m-205 -18 c0 -4 -44 -6 -97 -4 -140 5 -146 9 -15 11 61 0
112 -3 112 -7z m480 2 c-83 -8 -190 -8 -190 -1 0 4 51 6 113 5 61 -1 96 -3 77
-4z"/>
<path d="M640 1060 l0 -190 40 -20 c49 -25 50 -25 50 5 0 14 -8 29 -20 35 -16
8 -20 21 -20 59 l0 48 45 13 46 13 -3 95 -3 95 -42 12 c-23 7 -53 15 -67 19
l-26 6 0 -190z m90 56 c0 -50 -9 -66 -36 -66 -2 0 -4 32 -4 70 0 68 1 70 20
60 16 -9 20 -21 20 -64z"/>
<path d="M865 1230 l-60 -17 -3 -206 c-1 -114 0 -207 2 -207 2 0 33 15 68 34
l63 35 3 80 3 81 -26 0 c-25 0 -26 0 -19 -63 6 -61 5 -63 -20 -75 l-26 -12 0
145 c0 132 2 145 19 155 26 13 32 13 30 -2 -1 -7 -1 -28 0 -46 1 -29 3 -32 21
-22 17 9 20 21 20 75 0 36 -3 64 -7 64 -5 -1 -35 -9 -68 -19z"/>
<path d="M560 480 c0 -16 7 -20 30 -20 23 0 30 4 30 20 0 16 -7 20 -30 20 -23
0 -30 -4 -30 -20z"/>
<path d="M780 350 c0 -5 7 -10 15 -10 8 0 15 5 15 10 0 6 -7 10 -15 10 -8 0
-15 -4 -15 -10z"/>
</g>
</svg>
